<?xml version="1.0" standalone="no"?>
<!DOCTYPE svg PUBLIC "-//W3C//DTD SVG 20010904//EN"
 "http://www.w3.org/TR/2001/REC-SVG-20010904/DTD/svg10.dtd">
<svg version="1.0" xmlns="http://www.w3.org/2000/svg"
 width="96.000000pt" height="96.000000pt" viewBox="0 0 96.000000 96.000000"
 preserveAspectRatio="xMidYMid meet">
<metadata>
Created by potrace 1.14, written by Peter Selinger 2001-2017
</metadata>
<g transform="translate(0.000000,96.000000) scale(0.100000,-0.100000)"
fill="#000000" stroke="none">
<path d="M285 832 c-129 -54 -174 -122 -180 -272 -3 -60 17 -96 60 -111 19 -7
35 -16 35 -19 0 -3 9 -16 19 -27 11 -11 21 -33 23 -49 2 -23 8 -29 28 -29 20
0 26 6 28 28 2 19 9 27 23 27 18 0 19 -8 19 -110 0 -60 -3 -110 -7 -110 -21 1
-32 20 -35 60 -3 40 -6 45 -28 45 -23 0 -25 -4 -28 -53 -3 -47 0 -56 27 -82
16 -17 39 -30 50 -30 12 0 21 -4 21 -10 0 -5 9 -19 20 -30 19 -19 33 -20 200
-20 226 0 219 -4 219 144 0 55 0 122 1 149 l0 47 44 0 c28 0 52 7 69 20 25 20
26 25 23 96 -4 77 -16 109 -81 207 -20 31 -37 46 -52 47 -12 0 -23 -5 -25 -10
-2 -7 -14 -7 -36 1 -31 11 -36 9 -66 -20 -39 -38 -85 -53 -127 -41 -59 17 -78
46 -30 48 35 1 87 26 99 48 8 14 15 15 41 6 65 -23 89 27 26 54 -50 20 -70 18
-107 -14 -18 -16 -44 -32 -57 -35 -29 -7 -79 12 -105 42 -23 25 -56 26 -111 3z
m94 -66 l22 -23 -47 -18 c-67 -25 -110 -68 -134 -131 -11 -31 -18 -59 -16 -63
3 -4 1 -13 -4 -21 -7 -11 -11 -11 -23 -1 -18 14 -15 106 4 156 24 61 96 113
170 124 3 1 15 -10 28 -23z"/>
</g>
</svg>
